<svg class="scotch-logo__liquid" viewBox="0 0 30 48" style="max-width: 80px">
<defs>
<clipPath id="clip-path--glass">
<path class="liquid__path-container" d="M 8.6 1.5 c 0 13.33 -4.17 20 -3.75 23.33 a 9.17 8.33 0 0 0 20.83 0 c 0.42 -3.33 -3.75 -10 -3.75 -23.33 Z"></path>
</clipPath>
 <clipPath id="clip-path--liquid">
<path class="liquid__path liquid__path--top-clip" d="M -80 22 C -75.08 16 -69.08 16 -64.17 22 S -53.25 28 -48.33 22 S -37.42 16 -32.5 22 S -21.58 28 -16.67 22 S -5.75 16 -0.83 22 S 10.08 28 15 22 S 25.92 16 30.83 22 S 41.75 28 46.67 22 S 57.58 16 62.5 22 S 73.42 28 78.33 22 S 89.25 16 94.17 22 S 105.08 28 110 22 l 0 30 l -190 0"></path>
</clipPath>
</defs>
<g clip-path="url(#clip-path--glass)">
<circle class="liquid__drop liquid__drop--top liquid__drop--1" cx="18.3" cy="3.3" r="1.5"></circle>
<circle class="liquid__drop liquid__drop--bottom liquid__drop--2" cx="12" cy="5" r="1.5"></circle>
<path class="liquid__path liquid__path--top" d="M -80 22 C -75.08 16 -69.08 16 -64.17 22 S -53.25 28 -48.33 22 S -37.42 16 -32.5 22 S -21.58 28 -16.67 22 S -5.75 16 -0.83 22 S 10.08 28 15 22 S 25.92 16 30.83 22 S 41.75 28 46.67 22 S 57.58 16 62.5 22 S 73.42 28 78.33 22 S 89.25 16 94.17 22 S 105.08 28 110 22 l 0 30 l -190 0"></path>
<path class="liquid__path liquid__path--bottom" d="M -70 24.5 C -65.92 18.5 -59.92 18.5 -55.83 24.5 S -45.75 30.5 -41.67 24.5 S -31.58 18.5 -27.5 24.5 S -17.42 30.5 -13.33 24.5 S -3.25 18.5 0.83 24.5 S 10.92 30.5 15 24.5 S 25.08 18.5 29.17 24.5 S 39.25 30.5 43.33 24.5 S 53.42 18.5 57.5 24.5 S 67.58 30.5 71.67 24.5 S 81.75 18.5 85.83 24.5 S 95.92 30.5 100 24.5 l 0 30 l -170 0"></path>
<g class="liquid__path--clip-container" clip-path="url(#clip-path--liquid)">
<path class="liquid__path liquid__path--bottom-clip" d="M -70 24.5 C -65.92 18.5 -59.92 18.5 -55.83 24.5 S -45.75 30.5 -41.67 24.5 S -31.58 18.5 -27.5 24.5 S -17.42 30.5 -13.33 24.5 S -3.25 18.5 0.83 24.5 S 10.92 30.5 15 24.5 S 25.08 18.5 29.17 24.5 S 39.25 30.5 43.33 24.5 S 53.42 18.5 57.5 24.5 S 67.58 30.5 71.67 24.5 S 81.75 18.5 85.83 24.5 S 95.92 30.5 100 24.5 l 0 30 l -170 0"></path>
</g>
</g>
</svg>